<svg width="1200" height="620" viewBox="0 0 1200 620" fill="none" xmlns="http://www.w3.org/2000/svg">
  <rect width="1200" height="620" rx="28" fill="#F8FAFC"/>
  <text x="64" y="78" font-family="Inter, Arial, sans-serif" font-size="30" font-weight="800" fill="#0F172A">AI Interview 架构图</text>
  <text x="64" y="110" font-family="Inter, Arial, sans-serif" font-size="15" fill="#64748B">前后端分离、PostgreSQL 持久化、兼容 OpenAI SDK 的模型服务，可用 Docker Compose 一键部署。</text>
  <defs>
    <marker id="arrow-arch" markerWidth="12" markerHeight="12" refX="9" refY="3" orient="auto" markerUnits="strokeWidth">
      <path d="M0,0 L0,6 L9,3 z" fill="#64748B"/>
    </marker>
  </defs>
  <g font-family="Inter, Arial, sans-serif">
    <rect x="64" y="162" width="236" height="324" rx="22" fill="#FFFFFF" stroke="#CBD5E1"/>
    <text x="96" y="210" font-size="22" font-weight="800" fill="#0F172A">Frontend</text>
    <text x="96" y="236" font-size="14" fill="#64748B">React + Vite + Ant Design</text>
    <rect x="96" y="274" width="172" height="46" rx="12" fill="#EFF6FF"/>
    <text x="122" y="303" font-size="15" font-weight="700" fill="#1D4ED8">招聘工作台</text>
    <rect x="96" y="342" width="172" height="46" rx="12" fill="#F0FDF4"/>
    <text x="122" y="371" font-size="15" font-weight="700" fill="#047857">公开职位/笔试页</text>
    <rect x="96" y="410" width="172" height="46" rx="12" fill="#F5F3FF"/>
    <text x="122" y="439" font-size="15" font-weight="700" fill="#6D28D9">可视化工作流</text>
    <path d="M314 324H400" stroke="#64748B" stroke-width="3" marker-end="url(#arrow-arch)"/>
    <rect x="416" y="142" width="352" height="364" rx="24" fill="#0F172A"/>
    <text x="456" y="196" font-size="24" font-weight="800" fill="#FFFFFF">FastAPI Backend</text>
    <text x="456" y="224" font-size="14" fill="#CBD5E1">REST API、JWT、后台任务、业务服务层</text>
    <rect x="456" y="266" width="116" height="52" rx="12" fill="#1D4ED8"/>
    <text x="486" y="298" font-size="15" font-weight="700" fill="#FFFFFF">Routes</text>
    <rect x="596" y="266" width="116" height="52" rx="12" fill="#0284C7"/>
    <text x="617" y="298" font-size="15" font-weight="700" fill="#FFFFFF">Services</text>
    <rect x="456" y="346" width="116" height="52" rx="12" fill="#059669"/>
    <text x="487" y="378" font-size="15" font-weight="700" fill="#FFFFFF">Models</text>
    <rect x="596" y="346" width="116" height="52" rx="12" fill="#7C3AED"/>
    <text x="617" y="378" font-size="15" font-weight="700" fill="#FFFFFF">Workflows</text>
    <rect x="456" y="426" width="256" height="42" rx="12" fill="#1E293B" stroke="#334155"/>
    <text x="492" y="453" font-size="14" fill="#CBD5E1">Alembic migrations + OpenAPI docs</text>
    <path d="M782 280H876" stroke="#64748B" stroke-width="3" marker-end="url(#arrow-arch)"/>
    <path d="M782 372H876" stroke="#64748B" stroke-width="3" marker-end="url(#arrow-arch)"/>
    <path d="M782 452H876" stroke="#64748B" stroke-width="3" marker-end="url(#arrow-arch)"/>
    <rect x="892" y="160" width="244" height="92" rx="18" fill="#FFFFFF" stroke="#CBD5E1"/>
    <text x="928" y="202" font-size="20" font-weight="800" fill="#0F172A">PostgreSQL</text>
    <text x="928" y="228" font-size="13" fill="#64748B">招聘业务数据、工作流、配置</text>
    <rect x="892" y="300" width="244" height="92" rx="18" fill="#FFFFFF" stroke="#CBD5E1"/>
    <text x="928" y="342" font-size="20" font-weight="800" fill="#0F172A">LLM Provider</text>
    <text x="928" y="368" font-size="13" fill="#64748B">DashScope / OpenAI compatible</text>
    <rect x="892" y="440" width="244" height="92" rx="18" fill="#FFFFFF" stroke="#CBD5E1"/>
    <text x="928" y="482" font-size="20" font-weight="800" fill="#0F172A">Mail & Files</text>
    <text x="928" y="508" font-size="13" fill="#64748B">SMTP、上传简历、音频附件</text>
  </g>
</svg>
